<?xml version="1.0" encoding="UTF-8" standalone="no"?>
<svg
   xmlns:dc="http://purl.org/dc/elements/1.1/"
   xmlns:cc="http://creativecommons.org/ns#"
   xmlns:rdf="http://www.w3.org/1999/02/22-rdf-syntax-ns#"
   xmlns:svg="http://www.w3.org/2000/svg"
   xmlns="http://www.w3.org/2000/svg"
   version="1.1"
   id="svg1371"
   xml:space="preserve"
   width="725.14667"
   height="483.42667"
   viewBox="0 0 725.14667 483.42667">
  <metadata id="metadata1377">
    <rdf:RDF>
      <cc:Work rdf:about="">
        <dc:format>image/svg+xml</dc:format>
        <dc:type rdf:resource="http://purl.org/dc/dcmitype/StillImage" />
        <dc:title></dc:title>
      </cc:Work>
    </rdf:RDF>
  </metadata>
  <rect height="100%" width="100%" fill="white" />
  <defs id="defs1375" />
  <g id="g1379" transform="matrix(1.3333333,0,0,-1.3333333,0,483.42667)">
    <g id="g1381" transform="scale(0.1)">
      <path
        d="m 4305.57,1133.03 c 24.63,-27.49 46.07,-53.17 63.26,-81.58 47.91,-79.36 64.04,-165.524 37.22,-235.22 -53.24,-147.46 -73.69,-184.882 -73.69,-302.324 h 37.85 c 2.39,129.16 51.08,215.645 123.44,241.582 31.86,12.285 73.19,6.2 111.06,-32.773 46.87,-48.242 60.52,-181.133 -77.09,-206.699 14.57,21.66 13.34,69.082 -15.8,85.828 -22.29,11.144 -47.44,6.781 -59.2,-2.801 -18.93,-11.445 -37.15,-48.047 -37.15,-85.137 l 65.35,0.078 v -72.968 l -135.64,0.078 c 1.75,-37.539 22.24,-67.598 60.33,-84.356 -4.92,-15.8 -27.89,-48.047 -59.44,-45.859 -6.21,-34.121 -12.14,-53.281 -40.5,-84.277 -28.36,30.996 -34.28,50.156 -40.51,84.277 -31.56,-2.188 -54.53,30.059 -59.43,45.859 38.08,16.758 58.57,46.817 60.33,84.356 l -135.63,-0.078 -0.02,72.968 65.35,-0.078 c 0,37.09 -18.22,73.692 -37.16,85.137 -11.76,9.582 -36.92,13.945 -59.18,2.801 -29.14,-16.746 -30.37,-64.168 -15.82,-85.828 -137.62,25.566 -123.97,158.457 -77.09,206.699 37.89,38.973 79.2,45.058 111.05,32.773 72.38,-25.937 121.08,-112.422 123.44,-241.582 h 37.85 c 0,117.442 -20.43,154.864 -73.67,302.324 -26.82,69.696 -10.7,155.86 37.22,235.22 17.17,28.41 38.62,54.09 63.27,81.58 z M 3172.5,1359.63 H 5438.61 V 0 H 3172.5 v 1359.63 0"
        style="fill:#1f4fa2;fill-opacity:1;fill-rule:evenodd;stroke:none"
        id="path1383"
      />
      <path
        d="m 4305.57,3399.1 c 24.63,-27.49 46.07,-53.16 63.26,-81.6 47.91,-79.34 64.04,-165.5 37.22,-235.2 -53.24,-147.46 -73.69,-184.9 -73.69,-302.32 h 37.85 c 2.39,129.16 51.08,215.63 123.44,241.58 31.86,12.29 73.19,6.2 111.06,-32.77 46.87,-48.25 60.52,-181.15 -77.09,-206.7 14.57,21.66 13.34,69.08 -15.8,85.82 -22.29,11.14 -47.44,6.78 -59.2,-2.8 -18.93,-11.44 -37.15,-48.06 -37.15,-85.13 l 65.35,0.08 v -72.97 l -135.64,0.07 c 1.75,-37.53 22.24,-67.61 60.33,-84.34 -4.92,-15.82 -27.89,-48.06 -59.44,-45.88 -6.21,-34.11 -12.14,-53.27 -40.5,-84.27 -28.36,31 -34.28,50.16 -40.51,84.27 -31.56,-2.18 -54.53,30.06 -59.43,45.88 38.08,16.73 58.57,46.81 60.33,84.34 l -135.63,-0.07 -0.02,72.97 65.35,-0.08 c 0,37.07 -18.22,73.69 -37.16,85.13 -11.76,9.58 -36.92,13.94 -59.18,2.8 -29.14,-16.74 -30.37,-64.16 -15.82,-85.82 -137.62,25.55 -123.97,158.45 -77.09,206.7 37.89,38.97 79.2,45.06 111.05,32.77 72.38,-25.95 121.08,-112.42 123.44,-241.58 h 37.85 c 0,117.42 -20.43,154.86 -73.67,302.32 -26.82,69.7 -10.7,155.86 37.22,235.2 17.17,28.44 38.62,54.11 63.27,81.6 z M 3172.5,3625.71 H 5438.61 V 2266.07 H 3172.5 v 1359.64 0"
        style="fill:#1f4fa2;fill-opacity:1;fill-rule:evenodd;stroke:none"
        id="path1385"
      />
      <path
        d="m 1133.07,1133.03 c 24.63,-27.49 46.07,-53.17 63.24,-81.58 47.93,-79.36 64.04,-165.524 37.24,-235.22 -53.26,-147.46 -73.69,-184.882 -73.69,-302.324 h 37.85 c 2.37,129.16 51.08,215.645 123.44,241.582 31.86,12.285 73.19,6.2 111.06,-32.773 46.87,-48.242 60.52,-181.133 -77.09,-206.699 14.57,21.66 13.32,69.082 -15.8,85.828 -22.29,11.144 -47.44,6.781 -59.2,-2.801 -18.93,-11.445 -37.15,-48.047 -37.15,-85.137 l 65.35,0.078 -0.02,-72.968 -135.64,0.078 c 1.77,-37.539 22.24,-67.598 60.33,-84.356 -4.9,-15.8 -27.87,-48.047 -59.42,-45.859 -6.23,-34.121 -12.14,-53.281 -40.5,-84.277 -28.38,30.996 -34.3,50.156 -40.53,84.277 -31.54,-2.188 -54.51,30.059 -59.41,45.859 38.08,16.758 58.55,46.817 60.33,84.356 l -135.647,-0.078 v 72.968 l 65.327,-0.078 c 0,37.09 -18.2,73.692 -37.144,85.137 -11.758,9.582 -36.914,13.945 -59.18,2.801 -29.14,-16.746 -30.39,-64.168 -15.82,-85.828 -137.617,25.566 -123.965,158.457 -77.09,206.699 37.891,38.973 79.199,45.058 111.055,32.773 72.379,-25.937 121.079,-112.422 123.439,-241.582 h 37.85 c 0,117.442 -20.43,154.864 -73.67,302.324 -26.82,69.696 -10.7,155.86 37.22,235.22 17.17,28.41 38.62,54.09 63.27,81.58 z M 0,1359.63 H 2266.11 V 0 H 0 v 1359.63 0"
        style="fill:#1f4fa2;fill-opacity:1;fill-rule:evenodd;stroke:none"
        id="path1387"
      />
      <path
        d="m 1133.07,3399.1 c 24.63,-27.49 46.07,-53.16 63.24,-81.6 47.93,-79.34 64.04,-165.5 37.24,-235.2 -53.26,-147.46 -73.69,-184.9 -73.69,-302.32 h 37.85 c 2.37,129.16 51.08,215.63 123.44,241.58 31.86,12.29 73.19,6.2 111.06,-32.77 46.87,-48.25 60.52,-181.15 -77.09,-206.7 14.57,21.66 13.32,69.08 -15.8,85.82 -22.29,11.14 -47.44,6.78 -59.2,-2.8 -18.93,-11.44 -37.15,-48.06 -37.15,-85.13 l 65.35,0.08 -0.02,-72.97 -135.64,0.07 c 1.77,-37.53 22.24,-67.61 60.33,-84.34 -4.9,-15.82 -27.87,-48.06 -59.42,-45.88 -6.23,-34.11 -12.14,-53.27 -40.5,-84.27 -28.38,31 -34.3,50.16 -40.53,84.27 -31.54,-2.18 -54.51,30.06 -59.41,45.88 38.08,16.73 58.55,46.81 60.33,84.34 l -135.647,-0.07 v 72.97 l 65.327,-0.08 c 0,37.07 -18.2,73.69 -37.144,85.13 -11.758,9.58 -36.914,13.94 -59.18,2.8 -29.14,-16.74 -30.39,-64.16 -15.82,-85.82 -137.617,25.55 -123.965,158.45 -77.09,206.7 37.891,38.97 79.199,45.06 111.055,32.77 72.379,-25.95 121.079,-112.42 123.439,-241.58 h 37.85 c 0,117.42 -20.43,154.86 -73.67,302.32 -26.82,69.7 -10.7,155.86 37.22,235.2 17.17,28.44 38.62,54.11 63.27,81.6 z M 0,3625.71 H 2266.11 V 2266.07 H 0 v 1359.64 0"
        style="fill:#1f4fa2;fill-opacity:1;fill-rule:evenodd;stroke:none"
        id="path1389"
      />
    </g>
  </g>
</svg>
