<?xml version="1.0" encoding="UTF-8" standalone="no"?>
<svg
   xmlns:dc="http://purl.org/dc/elements/1.1/"
   xmlns:cc="http://creativecommons.org/ns#"
   xmlns:rdf="http://www.w3.org/1999/02/22-rdf-syntax-ns#"
   xmlns:svg="http://www.w3.org/2000/svg"
   xmlns="http://www.w3.org/2000/svg"
   xmlns:sodipodi="http://sodipodi.sourceforge.net/DTD/sodipodi-0.dtd"
   xmlns:inkscape="http://www.inkscape.org/namespaces/inkscape"
   width="128"
   height="128"
   viewBox="0 0 128 128"
   version="1.1"
   id="svg8"
   sodipodi:docname="shorts.svg"
   inkscape:version="1.0.1 (3bc2e813f5, 2020-09-07)">
  <defs
     id="defs2" />
  <sodipodi:namedview
     id="base"
     pagecolor="#ffffff"
     bordercolor="#666666"
     borderopacity="1.0"
     inkscape:pageopacity="0.0"
     inkscape:pageshadow="2"
     inkscape:zoom="3.7404894"
     inkscape:cx="83.44944"
     inkscape:cy="64.093107"
     inkscape:document-units="px"
     inkscape:current-layer="svg8"
     inkscape:document-rotation="0"
     showgrid="false"
     inkscape:window-width="1920"
     inkscape:window-height="1103"
     inkscape:window-x="0"
     inkscape:window-y="0"
     inkscape:window-maximized="1"
     inkscape:showpageshadow="false"
     units="px" />
  <metadata
     id="metadata5">
    <rdf:RDF>
      <cc:Work
         rdf:about="">
        <dc:format>image/svg+xml</dc:format>
        <dc:type
           rdf:resource="http://purl.org/dc/dcmitype/StillImage" />
        <dc:title></dc:title>
      </cc:Work>
    </rdf:RDF>
  </metadata>
  <path
     style="fill:#e99f52;fill-opacity:1;stroke:none;stroke-width:0;stroke-linecap:butt;stroke-linejoin:miter;stroke-opacity:1;stroke-miterlimit:4;stroke-dasharray:none"
     d="m 106,18 8,17 12,68 L 77,114 64,80 51,115 2,102 14,35 21,18 Z"
     id="path929"
     sodipodi:nodetypes="cccccccccc"
     inkscape:label="fill_color" />
  <path
     style="display:inline;fill:none;stroke:#00000b;stroke-width:3.5;stroke-linecap:round;stroke-linejoin:miter;stroke-miterlimit:4;stroke-dasharray:none;stroke-opacity:1"
     d="m 106,82 -5,11"
     id="path878-2-0"
     sodipodi:nodetypes="cc"
     inkscape:label="leg_right_shadow_1" />
  <path
     style="display:inline;fill:none;stroke:#00000b;stroke-width:3.5;stroke-linecap:round;stroke-linejoin:miter;stroke-miterlimit:4;stroke-dasharray:none;stroke-opacity:1"
     d="M 100,82 95,93"
     id="path878-2-7"
     sodipodi:nodetypes="cc"
     inkscape:label="leg_right_shadow_1" />
  <path
     style="display:inline;fill:none;stroke:#00000b;stroke-width:3.5;stroke-linecap:round;stroke-linejoin:miter;stroke-miterlimit:4;stroke-dasharray:none;stroke-opacity:1"
     d="M 93,82 88,93"
     id="path878-2"
     sodipodi:nodetypes="cc"
     inkscape:label="leg_right_shadow_1" />
  <path
     style="fill:none;stroke:#00000b;stroke-width:3.5;stroke-linecap:round;stroke-linejoin:miter;stroke-miterlimit:4;stroke-dasharray:none;stroke-opacity:1"
     d="M 86,82 81,93"
     id="path878"
     sodipodi:nodetypes="cc"
     inkscape:label="leg_right_shadow_1" />
  <path
     style="fill:none;stroke:#00000b;stroke-width:3.5;stroke-linecap:round;stroke-linejoin:miter;stroke-miterlimit:4;stroke-dasharray:none;stroke-opacity:1"
     d="m 94,110 32,-7"
     id="path876"
     sodipodi:nodetypes="cc"
     inkscape:label="leg_right_long" />
  <path
     style="fill:none;stroke:#00000b;stroke-width:3.5;stroke-linecap:round;stroke-linejoin:miter;stroke-miterlimit:4;stroke-dasharray:none;stroke-opacity:1"
     d="m 77,114 8,-2"
     id="path874"
     sodipodi:nodetypes="cc"
     inkscape:label="leg_right_short" />
  <path
     style="fill:none;stroke:#00000b;stroke-width:3.5;stroke-linecap:butt;stroke-linejoin:miter;stroke-miterlimit:4;stroke-dasharray:none;stroke-opacity:1"
     d="m 2,102 49,11"
     id="path872"
     sodipodi:nodetypes="cc"
     inkscape:label="leg_left" />
  <path
     style="display:inline;fill:none;stroke:#00000b;stroke-width:3.5;stroke-linecap:round;stroke-linejoin:miter;stroke-miterlimit:4;stroke-dasharray:none;stroke-opacity:1"
     d="m 74,30 c 0,0 -0.8,-4 -2,-7 -1,-3 -3,-4.5 -3,-4.5"
     id="path855-3"
     sodipodi:nodetypes="czc"
     inkscape:label="lace_right" />
  <path
     style="fill:none;stroke:#00000b;stroke-width:3.5;stroke-linecap:round;stroke-linejoin:miter;stroke-miterlimit:4;stroke-dasharray:none;stroke-opacity:1"
     d="m 54,30 c 0,0 1,-4 2,-7 1,-3 3,-4.5 3,-4.5"
     id="path855"
     sodipodi:nodetypes="czc"
     inkscape:label="lace_left" />
  <path
     style="fill:none;stroke:#00000b;stroke-width:3.5;stroke-linecap:round;stroke-linejoin:round;stroke-miterlimit:4;stroke-dasharray:none;stroke-opacity:1"
     d="m 21,18 h 7"
     id="path850"
     sodipodi:nodetypes="cc"
     inkscape:label="belt_left" />
  <path
     style="fill:none;stroke:#00000b;stroke-width:3.5;stroke-linecap:round;stroke-linejoin:miter;stroke-miterlimit:4;stroke-dasharray:none;stroke-opacity:1"
     d="M 106,18 H 37"
     id="path852"
     sodipodi:nodetypes="cc"
     inkscape:label="belt_right" />
  <path
     style="display:inline;fill:none;stroke:#00000b;stroke-width:3.5;stroke-linecap:butt;stroke-linejoin:round;stroke-miterlimit:4.5;stroke-dasharray:none;stroke-opacity:1;paint-order:normal"
     d="m 21,7.5 h 85 V 18 l 8,17 12,68 c 0,0 0.6,4 -0.5,6 -1,2 -4.5,3 -4.5,3 l -33.5,7.5 c 0,0 -4.5,1 -7,0 -2,-1 -3.5,-5.5 -3.5,-5.5 L 64,80 51,115 c 0,0 -1.8,4 -3.75,5 -1.5,1 -4.5,0 -4.5,0 L 5,111 c 0,0 -2.5,-0.75 -3,-3 -0.5,-1.5 0,-6 0,-6 L 14,35 21,18 Z"
     id="path25"
     sodipodi:nodetypes="cccccsccscccsccscccc"
     inkscape:label="outline" />
  <path
     style="fill:#000000;fill-opacity:0.0431373;stroke:none;stroke-width:0;stroke-linecap:butt;stroke-linejoin:miter;stroke-opacity:1;stroke-miterlimit:4;stroke-dasharray:none"
     d="M 37,118 59.5,60.5 c 0,0 0.3,-1.1 1,-1 0.5,0 0.5,1 0.5,1 L 64,80 48,120 Z"
     id="path919"
     sodipodi:nodetypes="ccscccc"
     inkscape:label="shadow_left" />
  <path
     style="fill:none;stroke:#000000;stroke-width:10.5;stroke-linecap:butt;stroke-linejoin:miter;stroke-miterlimit:4;stroke-dasharray:none;stroke-opacity:0.0431373;paint-order:normal"
     d="m 101,7 v 11 l 7,17 13,76"
     id="path916"
     inkscape:label="shadow_right"
     sodipodi:nodetypes="cccc" />
</svg>
