<svg width="128" height="128" version="1.1" viewBox="0 0 128 128" xmlns="http://www.w3.org/2000/svg">
 <path d="m106 18 8 17 12 68-49 11-13-34-13 35-49-13 12-67 7-17z" fill="#e99f52"/>
 <g fill="none" stroke="#00000b" stroke-width="3.5">
  <g stroke-linecap="round">
   <path d="m106 82-5 11"/>
   <path d="m100 82-5 11"/>
   <path d="m93 82-5 11"/>
   <path d="m86 82-5 11"/>
   <path d="m94 110 32-7"/>
   <path d="m77 114 8-2"/>
  </g>
  <path d="m2 102 49 11"/>
  <g stroke-linecap="round">
   <path d="m74 30s-.8-4-2-7c-1-3-3-4.5-3-4.5"/>
   <path d="m54 30s1-4 2-7 3-4.5 3-4.5"/>
   <path d="m21 18h7" stroke-linejoin="round"/>
   <path d="m106 18h-69"/>
  </g>
  <path d="m21 7.5h85v10.5l8 17 12 68s.6 4-.5 6c-1 2-4.5 3-4.5 3l-33.5 7.5s-4.5 1-7 0c-2-1-3.5-5.5-3.5-5.5l-13-34-13 35s-1.8 4-3.75 5c-1.5 1-4.5 0-4.5 0l-37.75-9s-2.5-.75-3-3c-.5-1.5 0-6 0-6l12-67 7-17z" stroke-linejoin="round" stroke-miterlimit="4.5" style="paint-order:normal"/>
 </g>
 <path d="m37 118 22.5-57.5s.3-1.1 1-1c.5 0 .5 1 .5 1l3 19.5-16 40z" fill-opacity=".0431373"/>
 <path d="m101 7v11l7 17 13 76" fill="none" stroke="#000" stroke-opacity=".0431373" stroke-width="10.5" style="paint-order:normal"/>
</svg>
